<svg id="playToStopOnce" width="159" height="159" viewBox="0 0 159 159" fill="none" xmlns="http://www.w3.org/2000/svg">
  <title>Play to Stop one-shot animation</title>

  <!-- Click works only while Play is visible. After the first click it is disabled. -->
  <rect id="clickArea" x="0" y="0" width="159" height="159" fill="transparent" pointer-events="all">
    <set attributeName="pointer-events" begin="clickArea.click" to="none" fill="freeze" />
  </rect>

  <!-- STOP icon: original 118x118 figure, final visual size is not changed. -->
  <g id="stopIcon" opacity="0" pointer-events="none">
    <animate
      attributeName="opacity"
      begin="clickArea.click+0.06s"
      dur="0.21s"
      values="0;0;1"
      keyTimes="0;0.22;1"
      calcMode="spline"
      keySplines="0 0 1 1;0.2 0.8 0.2 1"
      fill="freeze" />

    <g transform="translate(79.5 79.5)">
      <!-- Stop rotates slower than it grows and overshoots a little, then returns. -->
      <animateTransform
        attributeName="transform"
        type="rotate"
        begin="clickArea.click"
        dur="0.40s"
        values="-82;4;0"
        keyTimes="0;0.72;1"
        calcMode="spline"
        keySplines="0.16 0.78 0.22 1;0.25 0 0.18 1"
        additive="sum"
        fill="freeze" />

      <g>
        <!-- Stop grows faster than it rotates, with a slight size overshoot. -->
        <animateTransform
          attributeName="transform"
          type="scale"
          begin="clickArea.click+0.03s"
          dur="0.23s"
          values="0.28;1.015;1"
          keyTimes="0;0.74;1"
          calcMode="spline"
          keySplines="0.18 0.86 0.2 1;0.22 0 0.2 1"
          fill="freeze" />

        <g transform="translate(-59 -59)">
          <rect x="7.5" y="7.5" width="103" height="103" rx="17.5" fill="black" fill-opacity="0.35" stroke="#FF3F42" stroke-width="15" />
        </g>
      </g>
    </g>
  </g>

  <!-- PLAY icon: original 159x159 figure. -->
  <g id="playIcon" opacity="1" pointer-events="none">
    <animate
      attributeName="opacity"
      begin="clickArea.click"
      dur="0.23s"
      values="1;1;0"
      keyTimes="0;0.22;1"
      calcMode="spline"
      keySplines="0 0 1 1;0.24 0.78 0.18 1"
      fill="freeze" />

    <g transform="translate(79.5 79.5)">
      <!-- Magnet first leans backward, then spins forward. -->
      <animateTransform
        attributeName="transform"
        type="rotate"
        begin="clickArea.click"
        dur="0.40s"
        values="0;-17;360"
        keyTimes="0;0.11;1"
        calcMode="spline"
        keySplines="0.55 0 0.85 0.22;0.16 0.86 0.18 1"
        additive="sum"
        fill="freeze" />

      <g>
        <!-- Magnet shrinks faster than it rotates. -->
        <animateTransform
          attributeName="transform"
          type="scale"
          begin="clickArea.click"
          dur="0.21s"
          values="1;0.32"
          keyTimes="0;1"
          calcMode="spline"
          keySplines="0.22 0.9 0.18 1"
          fill="freeze" />

        <g transform="translate(-79.5 -79.5)">
          <path fill-rule="evenodd" clip-rule="evenodd" d="M97.9272 107.369C102.263 108.127 106.967 108.747 112.032 109.222L101.861 129.544C96.791 129.388 91.9191 129.213 87.162 128.867L97.9272 107.369ZM29.5694 56.6737C36.2341 44.2489 44.0725 36.2385 58.421 32.2108C69.8327 29.0074 83.6686 30.7113 94.323 36.4907C97.3913 38.1551 100.232 39.9372 102.899 41.827L90.591 66.0945C78.2568 60.2491 68.8426 62.7133 63.3869 73.6076C56.5475 87.2666 64.0439 97.9722 84.4641 104.222L72.9924 127.131C66.0856 125.859 59.2468 123.86 52.1982 120.615C41.1884 115.546 31.5367 105.488 27.2655 94.4314C21.8949 80.5291 23.6129 69.4536 29.5694 56.6737Z" fill="#F2FDFF" />
          <path d="M141.065 75.4797L96.8318 78.9099L118.148 37.4908L141.065 75.4797Z" fill="#F2FDFF" />
        </g>
      </g>
    </g>
  </g>
</svg>
